HIERARCHY
ROOT Hips
{
  OFFSET 90.7885 88.945 -76.2838
  CHANNELS 6 Xposition Yposition Zposition Zrotation Xrotation Yrotation
  JOINT LeftUpLeg
  {
    OFFSET 8.64259 1.95398 -2.38835
    CHANNELS 3 Zrotation Xrotation Yrotation
    JOINT LeftLeg
    {
      OFFSET 43.7702 0 0
      CHANNELS 3 Zrotation Xrotation Yrotation
      JOINT LeftFoot
      {
        OFFSET 40.6238 0 0
        CHANNELS 3 Zrotation Xrotation Yrotation
        JOINT LeftToeBase
        {
          OFFSET 12.7242 0 0
          CHANNELS 3 Zrotation Xrotation Yrotation
          End Site
          {
            OFFSET 0 0 0
          }
        }
      }
    }
  }
  JOINT RightUpLeg
  {
    OFFSET -8.2249 1.95398 -2.59336
    CHANNELS 3 Zrotation Xrotation Yrotation
    JOINT RightLeg
    {
      OFFSET 43.5653 0 0
      CHANNELS 3 Zrotation Xrotation Yrotation
      JOINT RightFoot
      {
        OFFSET 40.6238 0 0
        CHANNELS 3 Zrotation Xrotation Yrotation
        JOINT RightToeBase
        {
          OFFSET 12.7242 0 0
          CHANNELS 3 Zrotation Xrotation Yrotation
          End Site
          {
            OFFSET 0 0 0
          }
        }
      }
    }
  }
  JOINT Spine
  {
    OFFSET 0.165834 0.87714 6.61349
    CHANNELS 3 Zrotation Xrotation Yrotation
    JOINT Spine1
    {
      OFFSET 7.38963 1.71661e-005 0
      CHANNELS 3 Zrotation Xrotation Yrotation
      JOINT Spine2
      {
        OFFSET 11.9445 1.14441e-005 0
        CHANNELS 3 Zrotation Xrotation Yrotation
        JOINT Spine3
        {
          OFFSET 14.7254 4.19617e-005 0
          CHANNELS 3 Zrotation Xrotation Yrotation
          JOINT Spine4
          {
            OFFSET 10.9679 0 0
            CHANNELS 3 Zrotation Xrotation Yrotation
            JOINT RightShoulder
            {
              OFFSET 2.46616 -1.6653 3.69651
              CHANNELS 3 Zrotation Xrotation Yrotation
              JOINT RightArm
              {
                OFFSET 13.0012 0 0
                CHANNELS 3 Zrotation Xrotation Yrotation
                JOINT RightForeArm
                {
                  OFFSET 28.7848 1.52588e-005 0
                  CHANNELS 3 Zrotation Xrotation Yrotation
                  JOINT RightHand
                  {
                    OFFSET 26.5688 1.52588e-005 0
                    CHANNELS 3 Zrotation Xrotation Yrotation
                    End Site
                    {
                      OFFSET 0 0 0
                    }
                  }
                }
              }
            }
            JOINT LeftShoulder
            {
              OFFSET 2.38034 -1.29275 -3.7523
              CHANNELS 3 Zrotation Xrotation Yrotation
              JOINT LeftArm
              {
                OFFSET 16.3182 6.10352e-005 0
                CHANNELS 3 Zrotation Xrotation Yrotation
                JOINT LeftForeArm
                {
                  OFFSET 27.0901 0 0
                  CHANNELS 3 Zrotation Xrotation Yrotation
                  JOINT LeftHand
                  {
                    OFFSET 24.5451 1.52588e-005 0
                    CHANNELS 3 Zrotation Xrotation Yrotation
                    End Site
                    {
                      OFFSET 0 0 0
                    }
                  }
                }
              }
            }
            JOINT Neck
            {
              OFFSET 5.0226 -0.0266342 0
              CHANNELS 3 Zrotation Xrotation Yrotation
              JOINT Head
              {
                OFFSET 6.69363 2.86102e-005 0
                CHANNELS 3 Zrotation Xrotation Yrotation
                End Site
                {
                  OFFSET 0 0 0
                }
              }
            }
          }
        }
      }
    }
  }
}
MOTION
Frames:	13
Frame Time:	0.0416667
-238.749 67.1486 227.827 101.524 47.179 86.325 -155.284 72.6287 65.3729 -7.11352 12.3487 -1.26231 14.9473 9.654 -20.7957 126.764 -21.3018 -42.9467 -166.408 -56.3065 110.253 -8.51637 -9.18786 -0.140146 120.548 -13.8109 1.1823 23.5524 -2.2734 5.88062 -0.764343 8.02138 -90.5175 10.8244 -1.76088 -0.865056 -0.845582 -1.79723 -0.786709 -23.3852 -1.41948 -1.35431 -3.37254 -1.41949 -1.35432 89.1897 -33.0723 -107.169 40.596 -7.57346 2.29904 7.17364 -38.1609 -10.6481 -58.9771 6.34113 -23.3883 -89.9116 -54.8877 79.8548 -12.9239 16.8114 -31.7036 3.25751 3.17373 -6.34576 3.18273 0.0143349 -2.20872 3.49279 -1.34085 -9.23884 -4.95611 0.257987 -0.381282 
-233.569 68.1445 222.857 103.734 46.4222 85.5773 -158.632 71.1688 68.99 -7.84446 19.2044 0.23629 15.1789 4.19679 -19.8851 126.74 -21.5697 -43.8206 -163.61 -59.4478 112.776 -7.84786 -9.47044 -0.00396243 117.731 -15.2222 0.875283 20.5068 -1.63316 4.87565 -0.588553 7.99855 -90.5854 10.8696 -1.44214 -1.02913 -0.800866 -1.48603 -0.964658 -23.3367 -1.06622 -1.41495 -3.32404 -1.0662 -1.41495 89.5029 -32.9007 -106.639 42.0869 -9.2472 2.79099 5.86089 -15.821 -9.86829 -20.8637 -1.94817 -0.535209 -89.8112 -53.2314 79.6726 -17.6298 20.6265 -24.2961 0.216242 0.587041 0.548942 -0.748178 -0.13553 -6.66592 2.62717 -1.41806 -9.51648 -5.63013 0.147432 0.00729373 
-227.863 68.8918 217.656 103.833 47.8402 85.5093 -157.355 68.306 66.5826 -3.88382 22.8776 0.317443 12.9797 1.21797 -20.5807 126.902 -21.9513 -44.7576 -163.438 -61.1185 114.255 -7.9615 -8.0079 0.0880422 120.169 -15.7363 2.23909 21.6248 -1.71148 4.91737 -0.397397 7.94163 -90.6411 10.9817 -1.088 -1.17297 -0.689266 -1.13858 -1.12396 -23.222 -0.685218 -1.44569 -3.20934 -0.685221 -1.44569 89.5907 -32.2932 -106.695 41.4446 -9.37331 1.3363 5.02672 -18.5293 -12.8442 -22.236 -0.0891148 -9.58474 -89.7099 -53.5507 79.8771 -20.8792 19.2824 -14.0219 1.61746 3.46565 -1.98497 -1.23182 -0.0825401 -4.84457 2.63831 -2.24038 -8.23853 -4.40884 -0.874414 -0.10915 
-223.956 70.0385 213.995 105.006 47.8391 82.6415 -160.162 66.6285 68.3908 -2.52522 13.0877 0.197053 13.1081 11.2217 -22.7952 127.472 -21.989 -43.965 -171.288 -64.0174 106.453 -8.51713 -9.69323 -0.185659 121.554 -15.7665 3.03055 22.6306 -1.56505 4.50405 0.139529 8.04424 -90.3304 10.7902 0.125399 -0.667638 -0.880953 0.0958859 -0.672518 -23.415 0.320241 -0.599087 -3.40234 0.320261 -0.59909 89.3628 -33.2427 -106.78 38.9842 -10.3549 -2.21573 3.67212 -18.8776 -15.4155 -26.6257 -0.776949 -5.74207 -88.6764 -50.6558 80.8318 -25.846 15.0733 -6.23362 4.15072 0.220087 -6.89837 -0.462996 -0.115951 -6.10891 1.26881 -3.88705 -10.9658 -2.5925 -2.19735 1.44991 
-223.064 71.4577 212.794 103.729 46.1341 80.553 -164.708 68.2012 72.6506 -3.66353 -0.632904 0.109393 15.8513 18.8816 -25.2298 128.207 -21.7801 -42.198 172.917 -64.12 89.2197 -8.62066 -13.9137 -1.1961 121.524 -15.6608 3.30373 22.1048 -1.43078 4.29509 0.597736 8.09755 -90.0615 10.6803 1.16199 -0.228351 -0.990117 1.15081 -0.279277 -23.5294 1.17689 0.131486 -3.51678 1.1769 0.131479 90.4989 -30.3331 -105.647 37.3556 -10.1629 -8.30026 3.97111 -29.6605 -15.9937 -25.7617 -1.15783 -6.70917 -88.0181 -52.0055 82.054 -25.1317 14.3603 -1.49384 4.52372 -1.82436 -11.2408 -0.842961 -0.119859 -6.5671 1.96043 -4.37861 -7.12811 -3.43022 -3.19884 -0.590368 
-222.996 72.348 212.154 102.633 45.4093 79.5475 -170.41 70.9165 77.5731 -6.94897 0.136408 -0.164948 18.3793 9.69089 -23.6973 127.719 -21.3162 -41.5155 163.729 -63.2881 79.6081 -7.54988 -15.4664 -2.11256 120.57 -15.7314 2.73641 23.7316 -1.52702 4.28617 0.800421 8.15337 -90.0356 10.5697 1.57775 -0.213059 -1.10031 1.56683 -0.282316 -23.6431 1.5688 0.271083 -3.63047 1.56881 0.271084 90.6067 -27.9918 -106.313 35.1069 -12.022 -12.7532 1.59946 -19.0862 -19.8699 -28.97 -0.884632 -5.23116 -87.6377 -55.5936 83.1939 -22.3629 15.6362 0.896878 3.78837 -2.59343 -12.5477 -1.14102 -0.11403 -7.21607 3.2527 -3.34135 0.834717 -3.70926 -3.38184 -4.52512 
-221.523 72.2281 210.172 102.528 44.7419 79.3688 -171.527 71.8612 79.0678 -8.58059 -0.467375 -1.30156 19.6387 4.73501 -22.5965 127.162 -20.8435 -40.887 156.986 -63.2684 72.4767 -7.19009 -17.5798 -2.07982 120.624 -17.1232 2.88558 25.1101 -1.1815 3.35301 0.969452 8.22749 -90.1822 10.4234 1.84776 -0.524039 -1.24637 1.82292 -0.604885 -23.792 1.9198 0.055715 -3.77934 1.91979 0.0557189 89.6219 -28.2438 -108.213 31.1881 -10.892 -15.0506 -0.0683471 -20.2748 -22.3152 -28.5274 -0.478421 -7.5044 -87.2446 -58.4146 84.172 -22.382 15.2228 2.00784 3.73183 -3.04599 -12.1395 -0.772921 -0.121685 -6.59265 4.08185 -2.73042 4.92352 -3.25439 -3.48873 -4.69102 
-218.168 72.2213 206.773 102.343 42.8029 78.8055 -170.333 71.5299 78.9344 -8.4221 1.754 -1.54521 20.3678 2.62676 -20.9858 127.257 -21.1586 -41.7225 149.038 -62.6363 63.3626 -8.49223 -18.4315 -3.34259 116.11 -15.128 3.92254 29.9094 -2.22109 5.03903 1.18917 8.16068 -90.0433 10.5571 2.3487 -0.296238 -1.11176 2.33337 -0.399374 -23.6636 2.32909 0.423736 -3.65097 2.32908 0.423737 88.5228 -29.9633 -109.689 30.9836 -10.005 -14.9868 0.0474564 -21.5156 -20.8781 -26.8952 -0.141001 -9.50414 -87.4574 -59.47 84.0307 -24.1759 12.8869 3.77342 4.48059 -3.10508 -11.2793 -2.19675 -0.0951419 -6.77472 2.76952 -2.73997 2.41761 -2.50168 -3.08296 -2.4181 
-214.465 73.4596 203.219 101.418 40.8887 77.4539 -163.127 70.6725 72.3797 -8.03429 3.40485 -1.05081 21.3242 2.00338 -20.3526 127.299 -21.4747 -42.6492 142.399 -60.1384 54.0148 -9.11958 -25.1429 -2.19978 92.6844 -10.1728 -2.82795 44.1987 -4.40993 10.7939 1.20978 7.96637 -89.6872 10.9388 2.55328 0.380482 -0.729639 2.56755 0.267654 -23.2817 2.32084 1.13064 -3.26905 2.32084 1.13064 88.2806 -30.2319 -110.049 35.619 -11.5551 -12.0307 2.50165 -17.9606 -16.7015 -26.5237 -0.0763118 -8.85205 -86.892 -59.067 84.7429 -25.6133 11.8634 3.92201 4.5313 -3.57901 -8.03305 -3.64088 -0.0732534 -5.92935 2.48428 -2.20629 1.09244 -4.26802 -2.28762 -3.22869 
-211.772 75.1128 201.027 102.655 40.0225 74.929 -157.504 68.267 66.7759 -7.98979 3.87782 -1.45442 22.4265 2.74866 -20.1126 127.304 -21.4946 -42.7031 138.607 -60.8406 48.0247 -5.07601 -27.8189 -0.659169 67.6484 -2.62813 0.360013 26.6968 -2.6803 6.3857 0.979824 8.07494 -89.3763 10.713 2.23867 1.03414 -0.956371 2.28202 0.934572 -23.4991 1.8244 1.65925 -3.48649 1.8244 1.65924 89.0612 -30.7809 -108.299 39.0984 -13.6521 -8.88548 4.16581 -17.805 -15.1798 -25.8591 -0.311281 -7.76584 -88.0923 -56.1615 82.6501 -24.8571 14.0957 -1.20806 3.4816 -4.02855 -2.67858 -3.38509 -0.0713479 -6.56509 2.75238 -2.09666 -2.20431 -4.04165 -1.67999 -1.59744 
-209.684 76.7858 200.064 102.369 39.2336 76.1332 -158.838 68.3855 68.9574 -8.23636 2.64255 -2.36582 23.4386 5.20738 -20.2253 127.405 -21.5364 -42.6764 149.628 -60.8584 58.0193 -1.05183 -20.3537 -0.125845 73.0137 -6.89781 0.0406095 25.563 -2.76022 6.77244 0.545589 8.10708 -89.4626 10.6537 1.33399 0.947166 -1.01688 1.37439 0.887535 -23.5527 0.987686 1.30428 -3.54001 0.987688 1.30429 89.0853 -30.5372 -108.351 40.3699 -12.6996 -6.12131 3.93809 -20.6432 -15.8812 -27.8938 -0.804518 -5.98903 -88.3445 -56.0493 82.2759 -18.7107 14.0226 -7.4055 3.45855 -3.74375 -3.02586 -1.20905 -0.112265 -6.40955 1.51023 -0.40693 -1.63623 -2.65875 -0.142797 -1.48948 
-207.264 78.5788 199.457 102.178 40.3397 79.9173 -161.928 68.9073 71.4631 -8.32722 4.4246 -1.74453 24.2879 7.35681 -20.7525 127.555 -21.6 -42.6405 172.827 -40.2044 83.4584 -27.1138 -5.76723 -2.61485 99.6392 -11.8061 0.281235 22.0125 -2.42083 6.32168 0.151727 8.08767 -89.8154 10.6993 0.38731 0.332229 -0.971594 0.40156 0.31486 -23.5068 0.269559 0.433276 -3.49412 0.269561 0.433274 88.8377 -31.3859 -108.49 40.8045 -11.1729 -2.62018 3.2669 -19.7144 -16.2612 -26.0368 -0.327677 -8.15242 -87.9337 -53.555 82.4427 -14.881 10.8517 -14.088 4.97337 -2.27938 -4.75747 1.97778 -0.112942 -4.80032 -0.91386 0.295007 -3.95908 -2.24568 0.808385 0.402129 
-204.502 79.7061 198.52 102.589 42.6962 81.6978 -159.112 67.9664 66.6148 -8.16507 8.35752 -0.840614 24.9412 8.47495 -21.0208 127.686 -21.6721 -42.6604 177.109 -9.19177 95.4788 -59.0679 -3.71154 -6.10724 120.455 -14.0457 -1.2079 23.8004 -1.00718 3.19144 -0.261083 8.18921 -90.0312 10.4955 -0.534319 -0.0143998 -1.17531 -0.534424 0.00913219 -23.7113 -0.505284 -0.174321 -3.69864 -0.505275 -0.174315 88.8479 -31.7233 -108.337 40.8209 -9.72353 0.0280898 3.57351 -18.859 -15.8901 -27.584 -0.170951 -8.52519 -87.9083 -50.6101 81.9708 -12.84 9.02299 -21.2668 5.80218 -2.90354 -8.9031 -2.47506 -0.0867809 -8.56689 -0.710502 0.546976 -6.45088 -2.56045 1.39162 1.98429 
